<svg xmlns="http://www.w3.org/2000/svg" fill="#fff" viewBox="0 0 24 24" width="28" height="28"><path d="M7 18c-1.104 0-1.99.896-1.99 2s.886 2 1.99 2 2-.896 2-2-.896-2-2-2zm10 0c-1.104 0-2 .896-2 2s.896 2 2 2 2-.896 2-2-.896-2-2-2zm1.83-3.42l1.72-7.45A1 1 0 0 0 19.58 6H6.21l-.94-2.36A1 1 0 0 0 4.34 3H2v2h1.34l3.6 9.36-1.35 2.44C4.52 17.37 5.48 19 7 19h12v-2H7.42c-.13 0-.25-.11-.25-.25l.03-.12.9-1.63h7.45c.81 0 1.52-.52 1.74-1.28zM6.16 8h11.25l-1.25 5.45a.5.5 0 0 1-.49.38H8.12a.5.5 0 0 1-.49-.38L6.16 8z"/></svg>
